PathFileType	3	(X/Y/Z)	running_1__view2_aligned.trc
DataRate	CameraRate	NumFrames	NumMarkers	Units	OrigDataRate	OrigDataStartFrame	OrigNumFrames
100.0	100.0	9	19	mm	100.0	3412	6426
Frame#	Time	pelvis			neck			head			hip_left			hip_right			knee_left			knee_right			ankle_left			ankle_right			heel_left			heel_right			toe_left			toe_right			shoulder_left			shoulder_right			elbow_left			elbow_right			wrist_left			wrist_right			
		X1	Y1	Z1	X2	Y2	Z2	X3	Y3	Z3	X4	Y4	Z4	X5	Y5	Z5	X6	Y6	Z6	X7	Y7	Z7	X8	Y8	Z8	X9	Y9	Z9	X10	Y10	Z10	X11	Y11	Z11	X12	Y12	Z12	X13	Y13	Z13	X14	Y14	Z14	X15	Y15	Z15	X16	Y16	Z16	X17	Y17	Z17	X18	Y18	Z18	X19	Y19	Z19	
3412	34.11000	-26.487673	952.174854	124.685153	-33.335646	1501.727426	229.208152	-35.218586	1590.460540	374.195666	47.184239	952.347223	122.268678	-100.159821	952.002509	127.101603	98.381822	541.976316	223.552745	-112.701837	536.784340	204.532964	93.947618	256.434855	-22.696492	-126.190439	147.819091	80.858283	86.683047	240.127475	-71.735457	-127.613868	103.805230	40.803004	103.764528	111.028126	69.709952	-129.162307	76.055355	252.814658	124.459716	1463.140592	166.593773	-199.792942	1460.046757	190.347079	204.854821	1232.580919	30.826921	-278.557833	1198.987443	113.094287	218.512603	1106.239950	214.467035	-193.302710	1115.932972	299.268043
3413	34.12000	-26.392360	951.593171	124.208940	-32.750728	1500.893062	228.719449	-33.942803	1589.603507	373.868708	47.254850	951.783090	121.863334	-100.039806	951.403276	126.554522	97.908778	542.746027	229.428123	-114.069305	534.563468	197.039533	93.790289	255.104017	-11.345950	-127.422774	151.806803	65.988562	86.650636	237.983412	-59.792055	-128.542354	109.487395	25.540442	103.528168	112.976575	83.131368	-131.165427	76.739580	232.592517	124.425116	1462.607255	163.882426	-199.742756	1458.786233	191.298366	204.999745	1234.095841	23.597643	-278.092688	1196.252114	117.366849	225.335016	1104.067505	207.378191	-187.760127	1119.904064	305.905567
3414	34.13000	-26.297047	951.011488	123.732728	-32.165809	1500.058697	228.230745	-32.667021	1588.746475	373.541751	47.325462	951.218956	121.457990	-99.919791	950.804043	126.007442	97.435734	543.515737	235.303501	-115.436772	532.342595	189.546102	93.632961	253.773179	0.004592	-128.655110	155.794516	51.118840	86.618225	235.839350	-47.848654	-129.470841	115.169560	10.277880	103.291808	114.925023	96.552784	-133.168547	77.423805	212.370376	124.390516	1462.073918	161.171079	-199.692570	1457.525709	192.249653	205.144669	1235.610764	16.368365	-277.627543	1193.516786	121.639411	232.157429	1101.895060	200.289347	-182.217545	1123.875156	312.543090
3415	34.14000	-26.201734	950.429805	123.256516	-31.580891	1499.224332	227.742042	-31.391238	1587.889442	373.214794	47.396074	950.654823	121.052646	-99.799776	950.204810	125.460361	96.962690	544.285448	241.178879	-116.804240	530.121722	182.052670	93.475632	252.442342	11.355133	-129.887446	159.782228	36.249118	86.585813	233.695287	-35.905253	-130.399327	120.851725	-4.984683	103.055448	116.873472	109.974200	-135.171667	78.108030	192.148236	124.355915	1461.540581	158.459732	-199.642384	1456.265185	193.200940	205.289593	1237.125686	9.139087	-277.162399	1190.781458	125.911973	238.979841	1099.722614	193.200503	-176.674963	1127.846248	319.180614
3416	34.15000	-26.106421	949.848121	122.780303	-30.995973	1498.389968	227.253339	-30.115456	1587.032410	372.887837	47.466685	950.090689	120.647301	-99.679762	949.605577	124.913281	96.489646	545.055159	247.054258	-118.171707	527.900850	174.559239	93.318303	251.111504	22.705675	-131.119781	163.769940	21.379397	86.553402	231.551225	-23.961852	-131.327813	126.533891	-20.247245	102.819088	118.821920	123.395616	-137.174787	78.792255	171.926095	124.321315	1461.007244	155.748385	-199.592198	1455.004661	194.152227	205.434518	1238.640609	1.909809	-276.697254	1188.046130	130.184535	245.802254	1097.550169	186.111659	-171.132380	1131.817340	325.818138
3417	34.16000	-26.011108	949.266438	122.304091	-30.411054	1497.555603	226.764635	-28.839673	1586.175377	372.560879	47.537297	949.526555	120.241957	-99.559747	949.006344	124.366200	96.016602	545.824869	252.929636	-119.539175	525.679977	167.065808	93.160975	249.780666	34.056216	-132.352117	167.757652	6.509675	86.520991	229.407162	-12.018451	-132.256300	132.216056	-35.509807	102.582728	120.770369	136.817032	-139.177907	79.476480	151.703954	124.286715	1460.473907	153.037038	-199.542013	1453.744137	195.103514	205.579442	1240.155531	-5.319469	-276.232109	1185.310801	134.457097	252.624667	1095.377724	179.022815	-165.589798	1135.788433	332.455661
3418	34.17000	-25.915794	948.684755	121.827879	-29.826136	1496.721238	226.275932	-27.563891	1585.318344	372.233922	47.607908	948.962422	119.836613	-99.439732	948.407111	123.819120	95.543558	546.594580	258.805014	-120.906642	523.459104	159.572376	93.003646	248.449828	45.406758	-133.584452	171.745364	-8.360047	86.488579	227.263099	-0.075050	-133.184786	137.898221	-50.772369	102.346368	122.718817	150.238448	-141.181027	80.160705	131.481813	124.252114	1459.940571	150.325691	-199.491827	1452.483613	196.054801	205.724366	1241.670454	-12.548747	-275.766965	1182.575473	138.729659	259.447079	1093.205278	171.933970	-160.047215	1139.759525	339.093185
3419	34.18000	-25.820481	948.103072	121.351666	-29.241217	1495.886873	225.787228	-26.288108	1584.461312	371.906965	47.678520	948.398288	119.431269	-99.319718	947.807878	123.272039	95.070513	547.364291	264.680392	-122.274110	521.238232	152.078945	92.846317	247.118991	56.757299	-134.816788	175.733076	-23.229768	86.456168	225.119037	11.868351	-134.113272	143.580386	-66.034931	102.110008	124.667266	163.659864	-143.184147	80.844931	111.259672	124.217514	1459.407234	147.614344	-199.441641	1451.223089	197.006088	205.869290	1243.185376	-19.778025	-275.301820	1179.840145	143.002221	266.269492	1091.032833	164.845126	-154.504633	1143.730617	345.730708
3420	34.19000	-23.824576	946.736314	120.073424	-26.790989	1494.324010	225.269887	-23.833821	1582.767734	371.355959	49.675351	947.067271	118.226215	-97.324666	946.405378	121.920616	96.498814	546.091420	266.672225	-121.342794	520.290894	150.019157	94.641471	241.829762	64.839905	-134.503899	180.810774	-36.434764	88.441813	218.537950	20.537471	-133.620669	150.492048	-80.207297	103.600220	123.589049	175.515526	-143.803592	80.893173	93.186853	126.537247	1457.854123	146.796700	-197.319428	1449.569108	197.001036	208.497716	1242.320916	-21.553915	-273.169642	1177.632553	144.106990	269.490486	1089.510034	162.817003	-150.687677	1143.698482	346.962100
